<?xml version="1.0" encoding="UTF-8" standalone="no"?>
<!DOCTYPE svg PUBLIC "-//W3C//DTD SVG 1.1//EN" "http://www.w3.org/Graphics/SVG/1.1/DTD/svg11.dtd">
<svg width="100%" height="100%" viewBox="0 0 315 214" version="1.1" xmlns="http://www.w3.org/2000/svg" xmlns:xlink="http://www.w3.org/1999/xlink" xml:space="preserve" xmlns:serif="http://www.serif.com/" style="fill-rule:evenodd;clip-rule:evenodd;stroke-linejoin:round;stroke-miterlimit:2;">
    <g transform="matrix(1,0,0,1,-367.489,-536.444)">
        <g transform="matrix(0.937975,0,0,1.23441,-75.0924,166.368)">
            <path d="M763.174,439.306L763.174,439.308C763.174,457.898 743.341,472.968 718.876,472.968C637.399,472.968 472.017,472.968 472.017,472.968L472.017,439.306L763.174,439.306Z" style="fill:rgb(0,61,115);"/>
        </g>
        <g transform="matrix(1.07602,0,0,1.23441,-139.765,37.3445)">
            <rect x="472.017" y="439.306" width="291.157" height="33.661" style="fill:rgb(0,61,115);"/>
        </g>
        <g transform="matrix(1.07602,0,0,1.23441,-139.847,80.5807)">
            <rect x="472.017" y="439.306" width="291.157" height="33.661" style="fill:rgb(0,61,115);"/>
        </g>
        <g transform="matrix(1.07792,0,0,1.23441,-141.307,-5.84133)">
            <path d="M763.174,439.306L763.174,472.968L472.017,472.968L472.017,466.575C472.017,451.515 485.998,439.306 503.244,439.306C578.398,439.306 763.174,439.306 763.174,439.306Z" style="fill:rgb(0,61,115);"/>
        </g>
        <g transform="matrix(1.07792,0,0,1.23441,-141.139,123.661)">
            <path d="M763.174,439.306L763.174,439.308C763.174,448.235 759.113,456.797 751.884,463.109C744.655,469.422 734.85,472.968 724.627,472.968L472.017,472.968L472.017,439.306L763.174,439.306Z" style="fill:rgb(0,61,115);"/>
        </g>
        <g transform="matrix(1,0,0,1,-138.098,294.26)">
            <g transform="matrix(22,0,0,22,699.972,441.932)">
            </g>
            <text x="517.731px" y="441.932px" style="font-family:'ArialMT', 'Arial', sans-serif;font-size:22px;fill:white;">Have a great thursday</text>
        </g>
        <g transform="matrix(1,0,0,1,-137.637,122.476)">
            <g transform="matrix(22,0,0,22,736.582,441.932)">
            </g>
            <text x="517.731px" y="441.932px" style="font-family:'ArialMT', 'Arial', sans-serif;font-size:22px;fill:white;">Hi! my name is Jeroen</text>
        </g>
        <g transform="matrix(1,0,0,1,-137.637,165.476)">
            <g transform="matrix(22,0,0,22,704.817,441.932)">
            </g>
            <text x="517.731px" y="441.932px" style="font-family:'ArialMT', 'Arial', sans-serif;font-size:22px;fill:white;">I love tinkering with</text>
        </g>
        <g transform="matrix(1,0,0,1,-137.637,208.476)">
            <g transform="matrix(22,0,0,22,746.002,441.932)">
            </g>
            <text x="517.731px" y="441.932px" style="font-family:'ArialMT', 'Arial', sans-serif;font-size:22px;fill:white;">C#, <tspan x="557.681px 571.12px " y="441.932px 441.932px ">TS</tspan> and PowerShell</text>
        </g>
        <g transform="matrix(1,0,0,1,-140.157,252.38)">
            <g transform="matrix(22,0,0,22,701.132,441.932)">
            </g>
            <text x="517.731px" y="441.932px" style="font-family:'ArialMT', 'Arial', sans-serif;font-size:22px;fill:white;">Thanks for visiting!</text>
        </g>
    </g>
</svg>

