<?xml version="1.0" encoding="UTF-8" standalone="no"?>
<!DOCTYPE svg PUBLIC "-//W3C//DTD SVG 1.1//EN" "http://www.w3.org/Graphics/SVG/1.1/DTD/svg11.dtd">
<svg width="100%" height="100%" viewBox="0 0 394 212" version="1.1" xmlns="http://www.w3.org/2000/svg" xmlns:xlink="http://www.w3.org/1999/xlink" xml:space="preserve" xmlns:serif="http://www.serif.com/" style="fill-rule:evenodd;clip-rule:evenodd;stroke-linejoin:round;stroke-miterlimit:2;">
    <g transform="matrix(1,0,0,1,-442.169,-501.72)">
        <g transform="matrix(1.07792,0,0,1.23441,13.438,-40.5645)">
            <path d="M743.901,439.306C749.013,439.306 753.915,441.08 757.529,444.236C761.143,447.392 763.174,451.672 763.174,456.136C763.174,456.137 763.174,456.138 763.174,456.139C763.174,460.602 761.143,464.883 757.529,468.039C753.915,471.195 749.013,472.968 743.901,472.968C678.936,472.968 472.017,472.968 472.017,472.968L472.017,466.575C472.017,451.515 485.998,439.306 503.244,439.306C563.588,439.306 694.608,439.306 743.901,439.306Z" style="fill:rgb(0,61,115);"/>
        </g>
        <g transform="matrix(-1.07792,5.6205e-16,-6.43582e-16,-1.23441,1327.09,1127.91)">
            <path d="M743.901,439.306C749.013,439.306 753.915,441.08 757.529,444.236C761.143,447.392 763.174,451.672 763.174,456.136C763.174,456.137 763.174,456.138 763.174,456.139C763.174,460.602 761.143,464.883 757.529,468.039C753.915,471.195 749.013,472.968 743.901,472.968C678.936,472.968 472.017,472.968 472.017,472.968L472.017,466.575C472.017,451.515 485.998,439.306 503.244,439.306C563.588,439.306 694.608,439.306 743.901,439.306Z" style="fill:rgb(0,61,115);"/>
        </g>
        <g transform="matrix(1.07792,0,0,1.23441,-20.8555,44.29)">
            <path d="M743.901,439.306C749.013,439.306 753.915,441.08 757.529,444.236C761.143,447.392 763.174,451.672 763.174,456.136C763.174,456.137 763.174,456.138 763.174,456.139C763.174,460.602 761.143,464.883 757.529,468.039C753.915,471.195 749.013,472.968 743.901,472.968C678.936,472.968 472.017,472.968 472.017,472.968L472.017,466.575C472.017,451.515 485.998,439.306 503.244,439.306C563.588,439.306 694.608,439.306 743.901,439.306Z" style="fill:rgb(0,61,115);"/>
        </g>
        <g transform="matrix(1,0,0,1,7.14138,176.835)">
            <g transform="matrix(28,0,0,28,757.426,441.932)">
            </g>
            <text x="517.731px" y="441.932px" style="font-family:'ArialMT', 'Arial', sans-serif;font-size:28px;fill:white;">C# and PowerShell</text>
        </g>
        <g transform="matrix(-1.07792,5.6205e-16,-6.43582e-16,-1.23441,1293.79,1212.77)">
            <path d="M743.901,439.306C749.013,439.306 753.915,441.08 757.529,444.236C761.143,447.392 763.174,451.672 763.174,456.136C763.174,456.137 763.174,456.138 763.174,456.139C763.174,460.602 761.143,464.883 757.529,468.039C753.915,471.195 749.013,472.968 743.901,472.968C678.936,472.968 472.017,472.968 472.017,472.968L472.017,466.575C472.017,451.515 485.998,439.306 503.244,439.306C563.588,439.306 694.608,439.306 743.901,439.306Z" style="fill:rgb(0,61,115);"/>
        </g>
        <g transform="matrix(-1.07792,5.6205e-16,-6.43582e-16,-1.23441,1264.81,1255.11)">
            <path d="M743.901,439.306C749.013,439.306 753.915,441.08 757.529,444.236C761.143,447.392 763.174,451.672 763.174,456.136C763.174,456.137 763.174,456.138 763.174,456.139C763.174,460.602 761.143,464.883 757.529,468.039C753.915,471.195 749.013,472.968 743.901,472.968C678.936,472.968 472.017,472.968 472.017,472.968L472.017,466.575C472.017,451.515 485.998,439.306 503.244,439.306C563.588,439.306 694.608,439.306 743.901,439.306Z" style="fill:rgb(0,61,115);"/>
        </g>
        <g transform="matrix(1,0,0,1,-68.8491,257.661)">
            <g transform="matrix(28,0,0,28,749.674,441.932)">
            </g>
            <text x="517.731px" y="441.932px" style="font-family:'ArialMT', 'Arial', sans-serif;font-size:28px;fill:white;">Have a great thursday</text>
        </g>
        <g transform="matrix(1,0,0,1,23.5922,89.9389)">
            <g transform="matrix(28,0,0,28,796.268,441.932)">
            </g>
            <text x="517.731px" y="441.932px" style="font-family:'ArialMT', 'Arial', sans-serif;font-size:28px;fill:white;">Hi! my name is Jeroen</text>
        </g>
        <g transform="matrix(1,0,0,1,19.6841,129.707)">
            <g transform="matrix(28,0,0,28,755.84,441.932)">
            </g>
            <text x="517.731px" y="441.932px" style="font-family:'ArialMT', 'Arial', sans-serif;font-size:28px;fill:white;">I love tinkering with</text>
        </g>
        <g transform="matrix(1,0,0,1,-9.10215,216.181)">
            <g transform="matrix(28,0,0,28,751.151,441.932)">
            </g>
            <text x="517.731px" y="441.932px" style="font-family:'ArialMT', 'Arial', sans-serif;font-size:28px;fill:white;">Thanks for visiting!</text>
        </g>
    </g>
</svg>

